<svg xmlns="http://www.w3.org/2000/svg" viewBox="0 0 335.34 222.99"><title>banner_mobile</title><path d="M102.33,177.73l-22,2.12A3.42,3.42,0,0,1,78,179.2h0a3.41,3.41,0,0,1-1.39-2.43l-2.12-22A3.42,3.42,0,0,1,77.52,151l22-2.13a3.43,3.43,0,0,1,3.74,3.09l2.12,22A3.42,3.42,0,0,1,102.33,177.73Z" transform="translate(3.6 -24.65)" style="fill:none;stroke:#58be96;stroke-linecap:round;stroke-linejoin:round;stroke-width:3px"/><rect x="47.73" y="93.09" width="204.07" height="28.05" transform="translate(-5.98 -9.79) rotate(-5.5)" style="fill:#1194f6"/><rect x="160.91" y="161.63" width="56.85" height="11.11" transform="translate(-11.56 -5.72) rotate(-5.5)" style="fill:#fffffe"/><rect x="158.91" y="140.24" width="79.52" height="11.11" transform="translate(-9.47 -4.92) rotate(-5.5)" style="fill:#fffffe"/><path d="M250.63,89.1h0l-2.49-25.86a8.7,8.7,0,0,0-9.5-7.83L52.74,73.32a8.71,8.71,0,0,0-7.83,9.5l2.4,24.86h0l8.52,88.42a8.71,8.71,0,0,0,9.5,7.84L251.22,186a8.72,8.72,0,0,0,7.84-9.51Z" transform="translate(3.6 -24.65)" style="fill:none;stroke:#fffffe;stroke-linecap:round;stroke-linejoin:round;stroke-width:3px;stroke-dasharray:2,200"/><polygon points="244.33 150.43 250.05 171.1 254.17 163.01 263.85 161.69 244.33 150.43" style="fill:#fffffe"/><rect x="252.22" y="185.68" width="3.21" height="12.84" transform="matrix(0.79, -0.61, 0.61, 0.79, -60.9, 169.37)" style="fill:#fffffe"/><path d="M250.63,89.1h0l-2.49-25.86a8.7,8.7,0,0,0-9.5-7.83L52.74,73.32a8.71,8.71,0,0,0-7.83,9.5l2.4,24.86h0l8.52,88.42a8.71,8.71,0,0,0,9.5,7.84L251.22,186a8.72,8.72,0,0,0,7.84-9.51Z" transform="translate(3.6 -24.65)" style="fill:none;stroke:#fffffe;stroke-linecap:round;stroke-linejoin:round;stroke-width:3px;stroke-dasharray:20,200"/><path d="M250.63,89.1h0l-2.49-25.86a8.7,8.7,0,0,0-9.5-7.83L52.74,73.32a8.71,8.71,0,0,0-7.83,9.5l2.4,24.86h0l8.52,88.42a8.71,8.71,0,0,0,9.5,7.84L251.22,186a8.72,8.72,0,0,0,7.84-9.51Z" transform="translate(3.6 -24.65)" style="fill:none;stroke:#fffffe;stroke-linecap:round;stroke-linejoin:round;stroke-width:3px;stroke-dasharray:80,100"/><path d="M102.33,177.73l-22,2.12A3.42,3.42,0,0,1,78,179.2h0l24-29.63h0a3.43,3.43,0,0,1,1.32,2.39l2.12,22A3.42,3.42,0,0,1,102.33,177.73Z" transform="translate(3.6 -24.65)" style="fill:#58be96"/><polyline points="78.7 136.99 93.52 135.35 95.29 143.93 108.36 142.54" style="fill:none;stroke:#fffffe;stroke-linecap:round;stroke-linejoin:round;stroke-width:4px"/><path d="M-3.27,215.83S19.33,221,16,247.45" transform="translate(3.6 -24.65)" style="fill:none;stroke:#1194f6;stroke-miterlimit:10;stroke-width:3px"/><path d="M263.62,241.8S273,169,331.57,162.2" transform="translate(3.6 -24.65)" style="fill:none;stroke:#1194f6;stroke-miterlimit:10;stroke-width:3px"/><path d="M-3.27,160.5s48.33,0,53.39,86.39" transform="translate(3.6 -24.65)" style="fill:none;stroke:#fff;stroke-miterlimit:10;stroke-width:3px"/><path d="M33.86,132.35a3.56,3.56,0,1,1-3.56-3.56A3.56,3.56,0,0,1,33.86,132.35Z" transform="translate(3.6 -24.65)" style="fill:#fffffe"/><path d="M301.15,104.77a3.56,3.56,0,1,1-3.56-3.56A3.56,3.56,0,0,1,301.15,104.77Z" transform="translate(3.6 -24.65)" style="fill:#fffffe"/><circle cx="26.78" cy="3.56" r="3.56" style="fill:#1194f6"/><path d="M151.68,34.16A3.56,3.56,0,1,1,147,32.34,3.57,3.57,0,0,1,151.68,34.16Z" transform="translate(3.6 -24.65)" style="fill:#1194f6"/><circle cx="155.58" cy="191.18" r="3.56" style="fill:#1194f6"/><circle cx="283.9" cy="30.72" r="2.6" style="fill:#1194f6"/></svg>