<?xml version="1.0" encoding="utf-8"?>
<!-- Generator: Adobe Illustrator 22.0.0, SVG Export Plug-In . SVG Version: 6.00 Build 0)  -->
<svg version="1.1" id="Layer_1" xmlns="http://www.w3.org/2000/svg" xmlns:xlink="http://www.w3.org/1999/xlink" x="0px" y="0px"
	 viewBox="0 0 1123.4 533" style="enable-background:new 0 0 1123.4 533;" xml:space="preserve">
<style type="text/css">
	.st0{fill:none;stroke:#58BE96;stroke-width:3;stroke-linecap:round;stroke-linejoin:round;}
	.st1{fill:#1194F6;}
	.st2{fill:#FFFFFE;}
	.st3{fill:none;stroke:#FFFFFE;stroke-width:5;stroke-linecap:round;stroke-linejoin:round;stroke-dasharray:2,200;}
	.st4{fill:none;stroke:#FFFFFE;stroke-width:5;stroke-linecap:round;stroke-linejoin:round;stroke-dasharray:20,200;}
	.st5{fill:none;stroke:#FFFFFE;stroke-width:5;stroke-linecap:round;stroke-linejoin:round;stroke-dasharray:80,100;}
	.st6{fill:#58BE96;}
	.st7{fill:none;stroke:#FFFFFE;stroke-width:4;stroke-linecap:round;stroke-linejoin:round;}
	.st8{fill:none;stroke:#1194F6;stroke-width:4;stroke-miterlimit:10;}
	.st9{fill:none;stroke:#FFFFFF;stroke-width:4;stroke-miterlimit:10;}
</style>
<g id="Layer_2_1_">
	<g id="Dashboard">
		<path class="st0" d="M449.8,423.7l-41.2,4c-1.6,0.2-3.1-0.3-4.4-1.2l0,0c-1.5-1.1-2.4-2.7-2.6-4.5l-4-41.2c-0.3-3.5,2.2-6.7,5.8-7
			c0,0,0,0,0,0l41.2-4c1.6-0.2,3.2,0.3,4.5,1.3c1.4,1.1,2.3,2.7,2.5,4.5l4,41.2C455.9,420.2,453.3,423.4,449.8,423.7
			C449.8,423.7,449.8,423.7,449.8,423.7z"/>
		
			<rect x="347.7" y="265.5" transform="matrix(0.9954 -9.584575e-02 9.584575e-02 0.9954 -25.479 52.9517)" class="st1" width="381.6" height="52.4"/>
		
			<rect x="559.3" y="393.6" transform="matrix(0.9954 -9.584575e-02 9.584575e-02 0.9954 -35.9038 60.5603)" class="st2" width="106.3" height="20.8"/>
		
			<rect x="555.6" y="353.6" transform="matrix(0.9954 -9.584575e-02 9.584575e-02 0.9954 -31.9898 62.0492)" class="st2" width="148.7" height="20.8"/>
		<path class="st3" d="M727.1,258L727.1,258l-4.7-48.3c-0.9-9-8.8-15.5-17.8-14.7l-347.6,33.5c-8.9,0.9-15.5,8.8-14.6,17.8l4.5,46.5
			l0,0l15.9,165.3c0.9,8.9,8.8,15.5,17.8,14.6c0,0,0,0,0,0l347.6-33.5c9-0.9,15.5-8.8,14.7-17.8L727.1,258z"/>
		<polygon class="st2" points="708.6,418.7 719.3,457.4 727,442.3 745.1,439.8 		"/>
		<rect x="730" y="438.6" transform="matrix(0.7938 -0.6082 0.6082 0.7938 -122.9167 538.776)" class="st2" width="6" height="24"/>
		<path class="st4" d="M727.1,258L727.1,258l-4.7-48.3c-0.9-9-8.8-15.5-17.8-14.7l-347.6,33.5c-8.9,0.9-15.5,8.8-14.6,17.8l4.5,46.5
			l0,0l15.9,165.3c0.9,8.9,8.8,15.5,17.8,14.6c0,0,0,0,0,0l347.6-33.5c9-0.9,15.5-8.8,14.7-17.8L727.1,258z"/>
		<path class="st5" d="M727.1,258L727.1,258l-4.7-48.3c-0.9-9-8.8-15.5-17.8-14.7l-347.6,33.5c-8.9,0.9-15.5,8.8-14.6,17.8l4.5,46.5
			l0,0l15.9,165.3c0.9,8.9,8.8,15.5,17.8,14.6c0,0,0,0,0,0l347.6-33.5c9-0.9,15.5-8.8,14.7-17.8L727.1,258z"/>
		<path class="st6" d="M449.8,423.7l-41.2,4c-1.6,0.2-3.1-0.3-4.4-1.2l0,0l44.9-55.4l0,0c1.4,1.1,2.3,2.7,2.5,4.5l4,41.2
			C455.9,420.3,453.3,423.4,449.8,423.7z"/>
		<polyline class="st7" points="398.9,393.6 426.6,390.5 429.9,406.6 454.3,404 		"/>
		<path class="st8" d="M0.4,430.4c0,0,74,16.9,63,103.6"/>
		<path class="st8" d="M861.8,532.1c0,0,17.6-136.2,127-148.8s134.8-199.5,134.8-199.5"/>
		<path class="st0" d="M953.7,1.5c0,0-23.7,500.9,167.8,480.1"/>
		<path class="st9" d="M0.4,249.1c0,0,158.3,0,174.9,283"/>
		<path class="st9" d="M1010,532.1c0,0-66.3-381.1,111.4-481.8"/>
		<path class="st2" d="M256.5,479.2c0,3.7-3,6.7-6.7,6.7s-6.7-3-6.7-6.7c0-3.7,3-6.7,6.7-6.7C253.5,472.5,256.5,475.5,256.5,479.2
			L256.5,479.2z"/>
		<path class="st2" d="M838.3,352.6c0,3.7-3,6.7-6.7,6.7c-3.7,0-6.7-3-6.7-6.7s3-6.7,6.7-6.7c0,0,0,0,0,0
			C835.3,345.9,838.3,348.9,838.3,352.6C838.3,352.6,838.3,352.6,838.3,352.6z"/>
		<circle class="st2" cx="918" cy="127.1" r="6.7"/>
		<path class="st1" d="M243.1,284.5c0,3.7-3,6.7-6.6,6.7c-3.7,0-6.7-3-6.7-6.6c0-3.7,3-6.7,6.6-6.7c0,0,0,0,0,0
			C240.2,277.8,243.1,280.8,243.1,284.5z"/>
		
			<ellipse transform="matrix(0.7496 -0.6618 0.6618 0.7496 30.6595 795.1085)" class="st1" cx="1066.3" cy="357" rx="6.7" ry="6.7"/>
		<circle class="st1" cx="57.2" cy="421.8" r="6.7"/>
		<path class="st1" d="M806.1,459.2c0,2.7-2.2,4.9-4.9,4.9c-2.7,0-4.9-2.2-4.9-4.9c0-2.7,2.2-4.9,4.9-4.9c0,0,0,0,0,0
			C803.9,454.4,806.1,456.6,806.1,459.2z"/>
	</g>
</g>
</svg>
